<svg width="18" height="18" viewBox="0 0 18 18" fill="none" xmlns="http://www.w3.org/2000/svg">
<path fill-rule="evenodd" clip-rule="evenodd" d="M7.75 2.125C4.6434 2.125 2.125 4.6434 2.125 7.75C2.125 10.8566 4.6434 13.375 7.75 13.375C9.30347 13.375 10.7089 12.7461 11.7275 11.7275C12.7461 10.7089 13.375 9.30347 13.375 7.75C13.375 4.6434 10.8566 2.125 7.75 2.125ZM0.875 7.75C0.875 3.95304 3.95304 0.875 7.75 0.875C11.547 0.875 14.625 3.95304 14.625 7.75C14.625 9.42319 14.0266 10.9575 13.0333 12.1494L16.9419 16.0581C17.186 16.3021 17.186 16.6979 16.9419 16.9419C16.6979 17.186 16.3021 17.186 16.0581 16.9419L12.1494 13.0333C10.9575 14.0266 9.42319 14.625 7.75 14.625C3.95304 14.625 0.875 11.547 0.875 7.75Z" fill="#637381"/>
</svg>
