<svg width="42" height="34" viewBox="0 0 42 34" fill="none" xmlns="http://www.w3.org/2000/svg">
<path fill-rule="evenodd" clip-rule="evenodd" d="M18 0.5C11.3726 0.5 6 5.87258 6 12.5C6 12.8337 6.01366 13.1645 6.04048 13.4918C2.47254 15.1681 0 18.7937 0 23C0 28.799 4.70101 33.5 10.5 33.5H33C37.9706 33.5 42 29.4706 42 24.5C42 21.1305 40.1489 18.1963 37.4116 16.654C37.4698 16.2773 37.5 15.8918 37.5 15.5C37.5 11.3579 34.1421 8 30 8C29.7118 8 29.427 8.01633 29.1466 8.04816C27.3786 3.62564 23.0559 0.5 18 0.5ZM22.5 12.5C22.5 11.6716 21.8284 11 21 11C20.1716 11 19.5 11.6716 19.5 12.5V22.3787L16.0607 18.9393C15.4749 18.3536 14.5251 18.3536 13.9393 18.9393C13.3536 19.5251 13.3536 20.4749 13.9393 21.0607L19.9393 27.0607C20.5251 27.6464 21.4749 27.6464 22.0607 27.0607L28.0607 21.0607C28.6464 20.4749 28.6464 19.5251 28.0607 18.9393C27.4749 18.3536 26.5251 18.3536 25.9393 18.9393L22.5 22.3787V12.5Z" fill="#0F172A"/>
</svg>
